<?xml version="1.0"?>
<svg width="500" height="500" xmlns="http://www.w3.org/2000/svg" xmlns:svg="http://www.w3.org/2000/svg" enable-background="new 0 0 500 500" version="1.1" xml:space="preserve">
 <g class="layer">
  <title>Layer 1</title>
  <g display="none" id="Background_Simple">
   <g display="inline" id="svg_68">
    <path d="m355.89,197.61c-23.73,-50.24 -66.89,-4.34 -96.09,-40.48c-17.65,-21.83 -16.71,-41.88 -41.71,-52.96c-17.4,-7.71 -36.81,-5.16 -55.38,-14.47c-31.75,-15.93 -71.98,-23.46 -84.13,29.58c-5.07,22.12 -4.03,52.51 15.46,78c16.6,21.69 39.48,11.69 57.15,28.47c33.78,32.09 6.9,102.04 56.29,121.42c43.39,17.03 62.76,-43.26 106.94,-24.5c33.11,14.06 87.2,51.47 106.97,-15.75c8.43,-28.66 -4.76,-50.53 -21.84,-64.18c-23.58,-18.85 -28.09,-12.16 -43.66,-45.13z" fill="#407BFF" id="svg_69"/>
    <path d="m355.89,197.61c-23.73,-50.24 -66.89,-4.34 -96.09,-40.48c-17.65,-21.83 -16.71,-41.88 -41.71,-52.96c-17.4,-7.71 -36.81,-5.16 -55.38,-14.47c-31.75,-15.93 -71.98,-23.46 -84.13,29.58c-5.07,22.12 -4.03,52.51 15.46,78c16.6,21.69 39.48,11.69 57.15,28.47c33.78,32.09 6.9,102.04 56.29,121.42c43.39,17.03 62.76,-43.26 106.94,-24.5c33.11,14.06 87.2,51.47 106.97,-15.75c8.43,-28.66 -4.76,-50.53 -21.84,-64.18c-23.58,-18.85 -28.09,-12.16 -43.66,-45.13z" fill="#FFFFFF" id="svg_70" opacity="0.9"/>
   </g>
  </g>
  <g id="Product_iteration">
   <g id="svg_109">
    <rect fill="#ffaa56" height="1.68" id="svg_110" width="13.94" x="414.27" y="456.01"/>
    <rect fill="#ffaa56" height="1.68" id="svg_111" width="31.31" x="438.54" y="456.01"/>
    <path d="m480.02,387.79l-195.34,0l-31.43,58.17c-1.39,2.57 0.48,5.71 3.4,5.71l223.37,0l15.98,-31.94l-15.98,-31.94z" fill="#ffaa56" id="svg_112"/>
    <g id="svg_113">
     <path d="m261.07,105.93c69.39,6.23 124.46,62.84 128.26,132.89c0.15,2.8 3.09,4.51 5.59,3.27l23.72,-11.86c1.8,-0.93 3.91,-0.93 5.71,0l23.28,11.63c2.64,1.33 5.72,-0.69 5.6,-3.64c-4.21,-105.18 -87.98,-190.2 -192.66,-196.36l-15.78,31.56l16.26,32.51l0.01,0z" fill="#ffaa56" id="svg_114"/>
     <path d="m261.07,105.93c69.39,6.23 124.46,62.84 128.26,132.89c0.15,2.8 3.09,4.51 5.59,3.27l23.72,-11.86c1.8,-0.93 3.91,-0.93 5.71,0l23.28,11.63c2.64,1.33 5.72,-0.69 5.6,-3.64c-4.21,-105.18 -87.98,-190.2 -192.66,-196.36l-15.78,31.56l16.26,32.51l0.01,0z" fill="#ffaa56" id="svg_115" opacity="0.6"/>
    </g>
    <g id="svg_116">
     <path d="m107.65,233.84c6.24,-69.4 62.87,-124.46 132.92,-128.26c2.77,-0.15 4.5,-3.09 3.25,-5.59l-11.87,-23.72c-0.89,-1.8 -0.89,-3.92 0,-5.72l11.63,-23.27c1.33,-2.64 -0.67,-5.75 -3.64,-5.6c-105.14,4.22 -190.17,87.98 -196.36,192.63l31.56,15.78l32.51,-16.23l0,-0.01z" fill="#ffaa56" id="svg_117"/>
     <path d="m107.65,233.84c6.24,-69.4 62.87,-124.46 132.92,-128.26c2.77,-0.15 4.5,-3.09 3.25,-5.59l-11.87,-23.72c-0.89,-1.8 -0.89,-3.92 0,-5.72l11.63,-23.27c1.33,-2.64 -0.67,-5.75 -3.64,-5.6c-105.14,4.22 -190.17,87.98 -196.36,192.63l31.56,15.78l32.51,-16.23l0,-0.01z" fill="#ffaa56" id="svg_118" opacity="0.4"/>
    </g>
    <g id="svg_119">
     <path d="m235.57,387.23l-0.02,0c-69.37,-6.24 -124.43,-62.88 -128.26,-132.89c-0.15,-2.77 -3.08,-4.51 -5.57,-3.27l-23.71,11.86c-0.91,0.45 -1.89,0.69 -2.88,0.69c-0.97,0 -1.93,-0.23 -2.85,-0.69l-23.3,-11.63c-2.64,-1.31 -5.72,0.69 -5.6,3.64c2.07,51.37 23.11,97.94 56.32,132.85l-98.7,0l16.16,32.34l-15.59,31.17l234.47,0l15.78,-31.56l-16.24,-32.51z" fill="#ffaa56" id="svg_120"/>
     <path d="m235.57,387.23l-0.02,0c-69.37,-6.24 -124.43,-62.88 -128.26,-132.89c-0.15,-2.77 -3.08,-4.51 -5.57,-3.27l-23.71,11.86c-0.91,0.45 -1.89,0.69 -2.88,0.69c-0.97,0 -1.93,-0.23 -2.85,-0.69l-23.3,-11.63c-2.64,-1.31 -5.72,0.69 -5.6,3.64c2.07,51.37 23.11,97.94 56.32,132.85l-98.7,0l16.16,32.34l-15.59,31.17l234.47,0l15.78,-31.56l-16.24,-32.51z" fill="#ffaa56" id="svg_121" opacity="0.2"/>
    </g>
    <g id="svg_122">
     <path d="m388.99,259.3l0,0.03c-6.24,69.37 -62.87,124.43 -132.89,128.25c-2.8,0.15 -4.51,3.09 -3.27,5.59l11.86,23.72c0.89,1.8 0.89,3.91 0,5.71l-11.63,23.3c-1.33,2.63 0.69,5.72 3.64,5.6c105.18,-4.22 190.19,-88.01 196.36,-192.66l-31.56,-15.78l-32.51,16.23z" fill="#ffaa56" id="svg_123"/>
     <path d="m388.99,259.3l0,0.03c-6.24,69.37 -62.87,124.43 -132.89,128.25c-2.8,0.15 -4.51,3.09 -3.27,5.59l11.86,23.72c0.89,1.8 0.89,3.91 0,5.71l-11.63,23.3c-1.33,2.63 0.69,5.72 3.64,5.6c105.18,-4.22 190.19,-88.01 196.36,-192.66l-31.56,-15.78l-32.51,16.23z" fill="#ffaa56" id="svg_124" opacity="0.8"/>
    </g>
   </g>
  </g>
 </g>
</svg>